<svg xmlns="http://www.w3.org/2000/svg" width="256" height="256"><path fill="#62a747" d="M68 9c22.025 7.342 39.746 23.617 52 43l2.095 3.207c2.159 3.82 2.458 7.33 2.386 11.658l.01 2.307c.007 2.536-.015 5.07-.037 7.605q-.001 2.736.002 5.471c.001 4.94-.022 9.88-.05 14.819-.025 5.166-.028 10.332-.033 15.499-.012 9.778-.045 19.556-.085 29.334-.045 11.134-.067 22.268-.087 33.402-.041 22.9-.112 45.799-.201 68.698h-2l-2-4-1 2-6-2 4 7h-3v-2l-1.945-.73c-3.231-1.343-6.344-2.853-9.485-4.392-27.456-13.371-58.072-19.356-88.412-21.62C12 218 12 218 10 217V44c13.5 1.125 13.5 1.125 20 2 3.017-5.02 3.387-8.713 3.188-14.375l-.042-2.23A429 429 0 0 0 33 24c11.078 1.245 23.007 5.004 33 10z"/><path fill="#ebb20f" d="m188 9 2 25 6.438-2.75c5.87-2.416 11.757-4.24 17.937-5.687l2.252-.533c1.78-.396 3.576-.72 5.373-1.03 1 1 1 1 1.027 4.133q-.09 3.97-.187 7.937c.166 4.088.885 7.079 2.16 10.93l3.36-.656 4.39-.844 2.21-.434C238.394 44.411 241.493 44 245 44q.035 33.81.052 67.617.007 15.698.023 31.394.015 13.676.02 27.352 0 7.246.01 14.492.01 6.813.008 13.624 0 2.508.006 5.016.006 3.408.001 6.817l.003 3.863C245 217 245 217 244 218c-2.081.288-4.17.519-6.262.727a2174 2174 0 0 0-6.202.657c-29.347 3.185-58.414 9.282-84.325 23.893C144 245 144 245 142 245v2h-2c1.25-3.46 2.675-6.147 5-9l-5 1v2h-6v3h-2c-.187-23.88-.328-47.758-.414-71.638a7296 7296 0 0 0-.19-33.265q-.12-14.505-.149-29.009a1633 1633 0 0 0-.093-15.347c-.055-4.824-.07-9.648-.059-14.473a324 324 0 0 0-.049-5.285c-.241-14.478 3.272-24.55 13.414-35.379l1.415-1.416 1.551-1.609A309 309 0 0 1 152 32l2.5-2.496C161.977 22.408 177.317 9 188 9"/><path fill="#db3c2f" d="M69 10c16.586 2.496 34.89 19.296 44.473 32.27A212 212 0 0 1 120 52l2.095 3.207c2.159 3.82 2.458 7.33 2.386 11.658l.01 2.307c.007 2.536-.015 5.07-.037 7.605q-.001 2.736.002 5.471c.001 4.94-.022 9.88-.05 14.819-.025 5.166-.028 10.332-.033 15.499-.012 9.778-.045 19.556-.085 29.334-.045 11.134-.067 22.268-.087 33.402-.041 22.9-.112 45.799-.201 68.698h-2l-.918-2.344c-2.256-5.61-4.54-10.846-7.969-15.84C112 224 112 224 111.098 221.57c-1.26-2.95-2.831-4.877-4.973-7.257l-2.055-2.325c-1.902-2.059-1.902-2.059-4.14-2.883C98 208 98 208 96.68 205.175c-2.16-4.084-4.68-5.647-8.555-7.988l-1.855-1.193c-3.38-2.11-6.296-3.533-10.27-3.994v-3l-2.312-.875C71 187 71 187 68 185c-.328-2.531-.328-2.531-.25-5.5.015-.98.03-1.96.047-2.969C68 174 68 174 69 172c.114-1.615.167-3.235.19-4.854l.05-3.069.041-3.339.056-3.448q.088-5.49.163-10.977a6937 6937 0 0 1 .276-17.842c.108-5.729.3-11.413.755-17.123.83-10.717.536-21.483.469-32.223q-.04-6.528-.062-13.055l-.026-3.023-.01-2.765-.016-2.44C71 56 71 56 72 55c.041-1.449.01-2.9-.05-4.348l-.116-2.751-.147-2.964-.14-3.008a229 229 0 0 0-2.145-21.519c-.413-3.502-.47-6.887-.402-10.41"/><path fill="#2794cb" d="M187 10q-.213 4.344-.437 8.688l-.12 2.474-.127 2.412-.11 2.206C186 28 186 28 185.495 30.163c-.611 3.497-.636 6.916-.625 10.454l-.006 2.273q-.004 3.708.002 7.415 0 2.588-.003 5.174-.001 5.42.006 10.839.006 6.928-.004 13.856-.005 5.343 0 10.686 0 2.554-.002 5.107-.003 3.579.007 7.158l-.007 2.11c.02 4.34.473 8.48 1.136 12.765q.083 3.349.035 6.7c-.058 8.524.116 17.035.337 25.557.067 2.597.126 5.194.185 7.792l.127 4.97.05 2.345c.036 3.948.036 3.948 1.266 7.636 1.487 4.454 1.74 7.591 0 12-5.094 4.546-11.453 7.454-17.473 10.573-3.229 1.823-6.074 3.981-8.95 6.312C160 203 160 203 158 203l-2 4h-2l-.562 2c-1.353 2.823-2.43 4.121-4.563 6.313-4.637 5.054-7.263 11.038-10.176 17.175C137 236 137 236 135 239a75 75 0 0 0-1 5h-2c-.187-23.88-.328-47.758-.414-71.638a7296 7296 0 0 0-.19-33.265q-.12-14.505-.149-29.009a1633 1633 0 0 0-.093-15.347c-.055-4.824-.07-9.648-.059-14.473a324 324 0 0 0-.049-5.285c-.241-14.478 3.272-24.55 13.414-35.379l1.415-1.416 1.551-1.609A309 309 0 0 1 152 32l2.5-2.496C162.013 22.374 176.11 10 187 10"/><path fill="#62a945" d="M10 44c18.545 1.545 18.545 1.545 22 5 .187 2.33.324 4.665.438 7 .235 4.39.556 8.61 1.687 12.875.904 3.609.719 6.559.18 10.262-.43 4.038-.507 8.054-.555 12.113l-.064 2.367-.014 2.274-.028 2.032c.246 2.242.246 2.242 1.865 4.445 1.826 3.223 1.803 5.172 1.67 8.85l-.124 3.575-.18 3.707-.11 3.707c-.248 5.998-.54 9.673-3.765 14.793-.665 2.376-.665 2.376-.95 4.844l-.381 2.76-.357 2.896-.381 2.968C28.772 163.222 28.772 163.222 32 175c1.641 7.385 2.394 16.82 0 24l1.793.586c4.122 1.358 8.205 2.729 12.207 4.414l3.5 1.438c3.85 1.718 7.276 3.626 10.625 6.187 3.017 1.443 4.947 1.65 8.25 1.875 7.64.543 12.242 3.016 17.79 8.074 3.013 2.34 6.22 3.262 9.835 4.426l2 1v4l1.625.688c3.16 1.746 5.643 3.952 8.375 6.312l-1 3c-4.207-1.333-8.17-2.93-12.187-4.75-25.466-11.06-53.07-15.54-80.568-17.956C12 218 12 218 10 217z"/><path fill="#f0b70f" d="M245 44q.035 33.81.052 67.617.007 15.698.023 31.394.015 13.676.02 27.352 0 7.246.01 14.492.01 6.813.008 13.624 0 2.508.006 5.016.006 3.408.001 6.817l.003 3.863C245 217 245 217 244 218c-4.807.71-9.45 1.05-14.305.887-13.534-.418-25.608 1.78-38.695 5.113q-2.148.525-4.297 1.047c-7.435 1.882-14.6 4.228-21.777 6.902-2.31.83-4.535 1.522-6.926 2.051v2h-5a286 286 0 0 1 2.688-3.312l1.511-1.864c4.153-4.207 10.007-6.57 15.18-9.324 2.37-1.357 4.447-2.858 6.621-4.5 3.379-1.427 5.69-2.011 9.375-1.875 3.997-.138 6.005-1.02 9.43-2.914 3.312-1.827 6.762-3.368 10.191-4.965 2.327-1.151 2.327-1.151 3.004-4.246l6-1c.956-3.998 1.104-7.708 1.063-11.812l-.028-3.52L218 184l2-1 1 17 3-1c-.095-1.207-.19-2.413-.29-3.656l-.335-4.844-.195-2.398c-.36-5.481.176-9.85 1.82-15.102l1-1c.389-7.039.028-14.033-1-21l-1-1c-.247-3.233-.384-6.464-.523-9.703-.51-3.524-1.551-5.354-3.477-8.297-1.6-4.994-1.224-10.248-1.25-15.437l-.062-3.143c-.03-5.585.236-8.678 3.312-13.42.404-2.86.33-5.68.25-8.562l-.029-2.414a145 145 0 0 0-1.198-16.446C221 70 221 70 221.961 67.152c1.6-4.854 1.285-9.712 1.305-14.789C224 49 224 49 226.696 47.117c3-1.014 5.807-1.79 8.929-2.304.92-.16 1.84-.318 2.79-.481C241 44 241 44 245 44"/><path fill="#ececec" d="m33 24 3 1 .184 2.3.254 3.012c.08.987.162 1.973.246 2.989.234 2.793.234 2.793 1.316 5.699.108 1.362.166 2.728.19 4.094l.05 2.493.041 2.698.056 2.817q.087 4.48.163 8.96c.294 16.66.294 16.66.969 33.31l.113 2.307c-.09 3.455-.09 3.455 1.418 6.321.419 6.816-.033 13.69-.437 20.5l-.12 2.067c-.323 4.996-.323 4.996-.963 7.33-.566 2.48-.542 4.668-.472 7.208l.05 2.983q.066 3.07.157 6.14c.067 4.67.063 8.589-1.711 12.944-2.634 6.905-1.815 14.611-1.691 21.89q.022 2.324.04 4.647c.033 3.764.085 7.527.147 11.291l1.789.19c16.067 1.74 16.067 1.74 22.453 5.736 5.304 3.24 10.695 5.123 16.758 6.387 9.398 2.212 15.151 8.339 21 15.687-6.875-1.48-11.114-3.601-16.215-8.418-3.973-3.521-8.216-3.629-13.285-3.957-4.976-.382-7.458-1.615-11.5-4.625-2.582-1.112-5.189-2.103-7.828-3.07C47 206 47 206 45 204a78 78 0 0 0-4.937-1.5c-3.256-.882-5.21-1.598-8.063-3.5a75 75 0 0 1-.062-8.062c.148-6.324-.083-11.829-1.938-17.938l-1-1c-.768-8.2.26-16.375 1.313-24.5l.356-2.895.382-2.761.333-2.463C32 137 32 137 33.521 134.586c2.787-4.873 2.192-10.589 2.354-16.086l.18-3.707c.04-1.18.082-2.359.125-3.574l.116-3.252c-.34-3.404-1.476-5.119-3.296-7.967-.356-2.03-.356-2.03-.328-4.004l.014-2.227.064-2.332.029-2.413c.095-5.519.477-10.97 1.198-16.446.029-3.192-.963-5.557-1.977-8.578a144 144 0 0 1-.562-7.687c-.222-5.25-.222-5.25-1.438-10.313l1.426-2.664c1.95-4.134 1.92-7.224 1.762-11.711l-.042-2.23A429 429 0 0 0 33 24"/><path fill="#eaebe8" d="m220 24 3 1-.07 3.035q-.029 2.014-.055 4.028l-.07 3.972c.2 4.083.923 7.115 2.195 10.965l4 1-4 1-.148 2.965c-.686 12.015-.686 12.015-1.977 16.91-.904 3.609-.719 6.559-.18 10.262.43 4.038.507 8.054.555 12.113l.064 2.367c.036 5.835.036 5.835-1.806 8.719-2.493 4.405-1.94 9.074-1.883 14.039l-.035 3.078c.023 5.98.599 10.253 3.41 15.547 1.84 3.682 1.47 8.068 1.719 12.129-.036 2.766-.036 2.766 1.281 3.871 2.718 18.423 2.718 18.423-1 24-1.45 7.855-1.114 16.047-1 24l-4 2-.06-3.178q-.117-5.882-.257-11.763-.057-2.538-.105-5.075c-.046-2.443-.104-4.885-.164-7.328l-.035-2.26c-.099-3.591-.408-6.83-1.365-10.297-1.297-4.75-1.466-9.435-1.647-14.337l-.126-2.914q-.129-3.037-.246-6.073c-.12-3.068-.25-6.135-.382-9.203l-.246-5.935-.113-2.735c-.693-18.024-.693-18.024.746-20.902 1.457-13.958 1.297-28.108 1.477-42.125.04-2.97.091-5.94.144-8.91l.026-2.721c.1-5.143.81-9.346 2.353-14.244.074-2.332.095-4.669 0-7"/><path fill="#e8ecea" d="M186 9h2c.833 6.93 1.114 13.713 1.027 20.688l-.037 6.054q-.037 4.7-.086 9.4c-.03 3.057-.048 6.113-.064 9.17l-.04 2.798c-.022 5.417.52 10.316 1.81 15.582.72 4.263-.163 8.347-.923 12.558q-.441 2.767-.875 5.535l-.43 2.696c-.516 3.4-.894 6.779-1.195 10.207l-.269 3.011c.072 2.88.44 5.163 1.066 7.95 1.249 5.796 1.204 11.383 1.078 17.289q-.051 3.045-.09 6.09l-.054 2.679c-.02 2.457-.02 2.457 1.082 5.293.08 1.408.108 2.82.098 4.23l-.01 2.432-.025 2.525-.014 2.561q-.02 3.126-.049 6.252h-2v9c-2.904-2.904-2.355-5.943-2.414-9.84l-.059-2.41c-.06-2.563-.106-5.125-.152-7.687l-.117-4.983c-.154-6.8-.275-13.596-.245-20.397l.01-2.606q.015-2.451.046-4.902c.035-4.256.035-4.256-.566-8.455-.63-3.406-.643-6.735-.632-10.185l-.006-2.224q-.004-3.624.002-7.249 0-2.527-.003-5.054-.001-5.29.006-10.581.006-6.774-.004-13.548-.005-5.217 0-10.433 0-2.498-.002-4.995-.003-3.494.007-6.986l-.007-2.075c.016-3.596.325-6.89 1.136-10.39q.206-2.32.316-4.645l.127-2.548.12-2.62.13-2.677q.158-3.255.307-6.51"/><path fill="#e7e8e0" d="m68 9 2 1c.344 2.281.344 2.281.5 5.5l.215 3.781.124 2.203c.401 6.276.973 12.541 1.5 18.807l.259 3.147.234 2.808c.465 7.627.465 7.627-.331 10.65-.548 2.3-.614 4.304-.599 6.666l.01 2.724.025 2.929.012 3.05c.016 4.298.044 8.596.072 12.893q.026 4.716.041 9.432l.026 2.874c.021 6.123-.338 12.144-.847 18.245-.394 5.38-.475 10.761-.557 16.154l-.063 3.51q-.096 5.47-.183 10.94l-.131 7.482Q70.147 162.898 70 172l-2 1c-2.059-8.142-3.304-17.017-1.493-25.325.532-2.887.59-5.522.555-8.456l-.023-3.301L67 132.5q-.04-3.36-.062-6.719l-.036-2.998c.096-2.714.54-5.132 1.098-7.783.21-3.102.19-6.204.188-9.312v-2.67c-.08-9.273-1.055-18.367-2.88-27.467C65 72 65 72 65.972 68.42c1.3-4.923 1.264-9.63 1.19-14.694l-.017-2.921c-.017-3.06-.048-6.12-.082-9.181q-.042-4.58-.07-9.16-.019-2.838-.054-5.676C66.893 20.796 67.287 14.949 68 9"/><path fill="#be9733" d="m185 189 3 1c-5.021 3.945-10.351 6.792-16.112 9.5-4.294 2.055-6.9 3.712-9.2 7.875-1.694 2.635-3.491 4.121-5.934 6.031-3.069 2.789-5.489 6.115-8.02 9.387C147 225 147 225 145 227c-.458 1.972-.458 1.972-.625 4.125L144 235l10-8 2 1v1h2v-2l1.758-.734c7.974-3.373 7.974-3.373 14.64-8.782C179.181 213.051 185.857 213 192 213c3.01-1.264 5.621-2.76 8.375-4.5 3.423-1.956 6.912-3.178 10.625-4.5-1 3-1 3-3.512 4.5l-3.175 1.5-3.137 1.5L198 213l-3.121 1.695c-2.897 1.313-4.175 1.535-7.254 1.18-4.517-.15-6.813 1.06-10.45 3.625-3.359 2.316-6.968 4.146-10.562 6.07-4.935 2.7-8.72 5.315-12.613 9.43l4 1v-2c43.416-17.47 43.416-17.47 64-16l3 2-1.838.272c-26.608 4.007-52.78 9.823-76.353 23.224C144 245 144 245 142 245v2h-2c1.25-3.46 2.675-6.147 5-9l-6 2 .875-1.937c.944-2.572 1.422-4.706 1.875-7.375 1.123-5.293 3.778-8.647 7.25-12.688l1.55-1.914c2.247-2.727 4.322-4.988 7.137-7.149 2.516-1.805 2.516-1.805 3.504-4.8 2.282-3.957 5.075-5.367 9.059-7.262q1.946-.971 3.89-1.945l1.936-.943c1.97-1.01 3.834-2.136 5.72-3.292z"/><path fill="#97c27b" d="m10 44 12 1v1l-9 1-1 170h-2z"/><path fill="#ebeae5" d="M217 200v2l-3.937 1.75-2.481 1.105q-2.499 1.11-5.008 2.196c-4.038 1.758-7.848 3.578-11.574 5.949-2.365 1.182-3.514.98-6.125.813-6.596-.064-10.948 2.541-15.875 6.75-3.63 2.949-6.535 4.098-11 5.437l-2-1a258 258 0 0 1 8-8l1.598-1.54c4.717-3.932 9.967-4.54 15.886-5.648 6.037-1.395 11.078-4.26 16.266-7.562 5.035-2.797 10.655-2.346 16.25-2.25"/><path fill="#dde4d8" d="M36 74h1l1 9h1l.184 3.902.254 5.035.119 2.577.127 2.45.11 2.27c.024 1.79.024 1.79 1.206 2.766.572 9.304-.34 18.717-1 28h-1l-1-15-1 14h-1l.048-2.124c.062-3.188.101-6.375.14-9.564l.076-3.341.029-3.233.048-2.967c-.4-3.247-1.633-5.018-3.341-7.771-.34-2.22-.34-2.22-.293-4.426l.03-2.412.075-2.475.042-2.533c.035-2.051.088-4.103.146-6.154h1l.438-3.437C35 75 35 75 36 74"/><path fill="#e3e7e5" d="m68 9 2 1c.344 2.281.344 2.281.5 5.5l.215 3.781.124 2.203c.401 6.276.973 12.541 1.5 18.807l.259 3.147.234 2.808c.487 7.993.487 7.993-.793 11.047-1.516 3.949-1.505 7.822-1.664 12.02l-.117 2.533A987 987 0 0 0 70 78h-1c-1.031-8.501-1.321-17.01-1.562-25.562l-.064-2.148C66.51 20.745 66.51 20.745 68 9"/><path fill="#eaede9" d="m187 185 1 3c-4.885 3.67-9.733 6.521-15.25 9.125a554 554 0 0 0-4.203 2.008l-1.849.871c-2.857 1.676-4.453 3.562-6.073 6.434C159 209 159 209 156.691 210.816c-2.878 2.336-5.05 4.805-7.379 7.684l-2.324 2.844c-2.737 3.657-4.142 6.698-5.05 11.156-.591 2.851-1.214 5.68-1.938 8.5h-6c1.728-4.65 3.956-8.987 6.25-13.375l1.121-2.21c2.342-4.477 4.932-8.218 8.35-11.943 1.434-1.546 1.434-1.546 2.654-3.972 4.784-7.36 13.022-11.88 20.375-16.312l2.824-1.733c3.753-2.29 7.466-4.539 11.426-6.455"/><path fill="#c5a449" d="m225 220-1.838.272c-20.833 3.138-40.762 7.669-60.424 15.31-2.633.999-5.022 1.786-7.738 2.418v-2h3v-2c54.877-22.082 54.877-22.082 67-14"/><path fill="#d7aa2a" d="M189 79h1c1.567 17.037 1.567 17.037 0 24-.915 4.416-.915 4.416-.543 8.822.708 2.84.763 5.538.86 8.463l.127 3.773.119 4.004.128 4.067c.314 10.292.426 20.575.309 30.871h-1l-.184-3.613-.254-4.7-.119-2.38-.127-2.295-.11-2.11c-.162-2.124-.162-2.124-1.206-4.902a89 89 0 0 1-.027-4.973l.037-2.978q.051-3.07.117-6.14c.064-5.818-.422-11.023-1.698-16.695-.583-3.007-.468-5.736-.179-8.776l.324-3.543c.762-6.971 1.558-13.936 2.426-20.895"/><path fill="#ecede9" d="m185 123 2 1c1.438 5.126 1.406 10.534 1.719 15.82.16 3.2.16 3.2 1.281 6.18.08 1.408.108 2.82.098 4.23l-.01 2.432-.025 2.525-.014 2.561q-.02 3.126-.049 6.252h-2v9c-2.472-2.472-2.265-3.226-2.319-6.633l-.06-2.912-.035-3.15-.059-3.22c-.06-3.403-.106-6.807-.152-10.21q-.057-3.455-.117-6.91-.143-8.483-.258-16.965"/><path fill="#be8f1c" d="m185 189 3 1c-5.021 3.945-10.351 6.792-16.112 9.5-4.294 2.055-6.9 3.712-9.2 7.875-1.694 2.635-3.491 4.121-5.934 6.031-3.069 2.789-5.489 6.115-8.02 9.387C147 225 147 225 145 227a90 90 0 0 0-1 6h-1c-.591-4.728-.265-7.147 2.625-11q1.664-2.02 3.375-4l1.559-1.922c2.242-2.725 4.316-4.982 7.129-7.14 2.515-1.806 2.515-1.806 3.503-4.801 2.282-3.957 5.075-5.367 9.059-7.262q1.946-.971 3.89-1.945l1.936-.943c1.97-1.01 3.834-2.136 5.72-3.292z"/><path fill="#e9ece9" d="M72 211c8.07.547 13.226 2.956 19.25 8.5l2.578 2.344C96 224 96 224 98 227c-6.875-1.48-11.114-3.601-16.215-8.418-5.088-4.51-12.323-4.145-18.785-4.582v-1l6.152-.684c1.86-.135 1.86-.135 2.848-1.316"/><path fill="#ba8b15" d="M210 204v3l-12 6-3.125 1.707c-2.891 1.3-4.18 1.522-7.25 1.168-4.517-.15-6.813 1.06-10.45 3.625-3.359 2.316-6.968 4.146-10.562 6.07A141 141 0 0 0 156 232v-3h2v-2l1.758-.734c7.974-3.373 7.974-3.373 14.64-8.782C179.181 213.051 185.857 213 192 213c3.019-1.268 5.654-2.787 8.438-4.5 3.096-1.813 6.245-3.134 9.562-4.5"/><path fill="#edeeea" d="M68 133h2v39l-2 1c-3.398-13.441-1.816-26.46 0-40"/><path fill="#e3d0c6" d="M71 59c1.311 3.903 1.03 7.775.879 11.828l-.072 2.27q-.116 3.576-.245 7.152l-.158 4.86Q71.21 91.054 71 97h-1V81h-2v10h-1c-.09-1.178-.09-1.178-.184-2.379l-.254-3.183-.265-3.333c-.264-3.226-.264-3.226-.984-6.855-.405-4.212.482-7.208 1.687-11.25l2 4 .438-3.937c.437-3.938.437-3.938 1.562-5.063"/><path fill="#579844" d="M67 93c2.398 2.398 2.256 2.948 2.266 6.219l.011 2.563-.027 2.718-.012 2.741c-.08 6.15-.648 11.796-2.238 17.759h-1c-2.327-23.06-2.327-23.06 1-32"/><path fill="#e8f0eb" d="M69 36c1.61 2.845 2.25 4.87 2.23 8.133l-.003 2.419-.04 2.573-.019 2.651C71.068 60.533 70.591 69.264 70 78h-1c-1.036-8.132-1.15-16.185-1.125-24.375l-.012-3.809.004-3.652.004-3.298c.111-2.468.413-4.514 1.129-6.866"/><path fill="#77a77c" d="M98 227c8.673 5.5 14.068 10.858 19 20h-3v-2l-2.312-.812c-2.593-1.146-3.989-1.952-5.688-4.188v-3c-1.98-1.657-4.088-2.994-6.25-4.402L98 231z"/><path fill="#dadfd7" d="M104 213c6.827 4.915 9.573 10.434 13 18a502 502 0 0 0 2.375 4.75L121 239l-2 3a56.5 56.5 0 0 1-7-4h3c-1.287-9.203-4.073-16.586-11-23z"/><path fill="#ece8d7" d="m219 79 2 3h2v18h-1l-1-13-.25 5.313c-.14 2.988-.14 2.988-.75 5.687-2.047 1.855-2.047 1.855-4 3q.172-4.375.375-8.75c.03-.825.062-1.65.094-2.5l.117-2.422.095-2.222c.357-2.355 1.156-4.04 2.319-6.106"/><path fill="#398040" d="m88 215 1.46 1.277 1.915 1.66 1.898 1.653c1.683 1.48 1.683 1.48 3.727 2.41v2l1.688.75c5.319 2.875 9.753 7.309 14.312 11.25-.508-4.318-1.197-8.033-3-12 2.628 1.865 3.864 3.304 4.488 6.492.238 2.504.416 4.995.512 7.508-5.253-.386-8.06-3.2-11.812-6.562-.615-.54-1.23-1.08-1.862-1.637C91.07 220.72 91.07 220.72 88 217z"/><path fill="#e8f0f5" d="M221 166h1c1.232 11.035 2.365 21.881 2 33l-3 1z"/><path fill="#347d39" d="M60 213c11.07.445 17.89 1.03 26.164 8.574 3.014 2.34 6.221 3.262 9.836 4.426l2 1-1 2c-9.708-3.434-9.708-3.434-13.125-6.5-6.141-5.34-10.872-6.762-18.875-6.5-3-1-3-1-5-2z"/><path fill="#ddb949" d="M225 220q-5.75.972-11.5 1.938l-3.266.552c-5.735.962-11.457 1.844-17.234 2.51 3-2 3-2 6-2v-2c20.706-4.53 20.706-4.53 26-1"/><path fill="#ebeff6" d="M221 86h1c.447 9.309.444 16.569-4 25-1.918-3.539-2.432-5.935-2-10l1.48-1.332c2.136-2.344 1.989-4.171 2.145-7.293.292-5.292.292-5.292 1.375-6.375"/><path fill="#dde5d5" d="m33 183 3 1v15l4.063.438c3.993.442 7.963.97 11.937 1.562v1c-8.027 1.38-12.807.891-20-3z"/><path fill="#e2e6e0" d="m144 220 2 3-1.375 1.938c-2.08 3.918-2.775 7.744-3.625 12.062q-.486 2.004-1 4h-6c1.725-4.603 3.91-8.933 6.125-13.312l1.129-2.245q1.37-2.723 2.746-5.443"/><path fill="#f0f0ef" d="m68 9 2 1 1 23-2 1c-4.21-7.157-1.96-17.096-1-25"/><path fill="#e5b734" d="M224 49h2c.185 7.417.242 13.877-2 21-.46 3.992-.75 7.99-1 12h-1a379 379 0 0 1-.625-5.625l-.352-3.164c-.025-3.536.834-5.884 1.977-9.211.283-2.648.502-5.223.625-7.875l.117-2.086q.138-2.52.258-5.039"/><path fill="#f8f4f7" d="M37 49h1v35h-1l-1-9-1 10h-1q-.04-2.906-.062-5.812l-.036-3.27C34 73 34 73 35 70h2z"/><path fill="#dfe5dd" d="m184 109 3 1c1.837 7.414 2.236 14.377 2 22-3.518-5.277-4.16-9.69-4.004-15.875.005-2.475-.378-4.731-.996-7.125"/><path fill="#e7e5db" d="M187 55h1c.249 2.916.475 5.831.688 8.75l.22 2.5c.423 6.173.423 6.173-1.388 9.328L186 77c-2.465-3.697-2.098-6.214-1.75-10.437l.121-2.026c.264-3.601.703-6.45 2.629-9.537"/><path fill="#e9e8e2" d="m68 185 8 4v3l2.168-.219c3.62.28 5.256 1.562 8.144 3.719l2.676 1.969L91 199l-2 1c-1.875-.707-1.875-.707-4-1.812l-2.125-1.083C81 196 81 196 79 194l-2.25-.875c-3.278-1.341-5.941-2.97-8.75-5.125z"/><path fill="#f6f3f0" d="M68 81h2c.393 4.103.761 8.207 1.125 12.313l.34 3.537.293 3.388.285 3.127C72 106 72 106 70 109c-1.617-9.5-2.263-18.368-2-28"/><path fill="#d8a316" d="M189 79h1c1.73 18.81 1.73 18.81-1 27h-1c-.112-9.074.058-17.963 1-27"/><path fill="#4198c3" d="m157 27 2 1-4 5-1.812 2.438c-2.334 2.733-4.84 4.944-7.602 7.23-1.703 1.391-1.703 1.391-3.586 3.332.594-3.437 1.794-5.247 4.125-7.812l1.887-2.083A301 301 0 0 1 157 27"/><path fill="#e4b222" d="M219 105h1c2.279 8.174 1.894 15.615 1 24l-2-1z"/><path fill="#b88918" d="M175 217h2c-1.482 4.012-3.571 5.164-7.312 7.063-4.733 2.433-9.258 4.984-13.688 7.937v-3h2v-2l1.758-.734c5.668-2.432 10.828-4.852 15.242-9.266"/><path fill="#bd8c13" d="M153 213h2c-1.351 4.025-3.101 6.423-6.062 9.438C145.764 225.868 144 228.13 144 233h-1c-.604-4.829-.218-7.202 2.75-11.125q1.61-1.951 3.25-3.875l2.25-3z"/><path fill="#fcf9fb" d="m37 114 2 1c.058 3.125.094 6.25.125 9.375l.05 2.695.02 2.578.032 2.38C39 134 39 134 37 136c-.902-5.14-.98-9.697-.562-14.937l.158-2.073A749 749 0 0 1 37 114"/><path fill="#dc7466" d="M70 131h1l.076 2.247q.176 5.033.362 10.065l.119 3.538.127 3.388.11 3.127c.108 2.742.108 2.742 1.206 5.635l-1 1a70 70 0 0 0-.562 4.063L71 168h-1z"/><path fill="#ebe0be" d="M215 101h1l1 6h2l-.437 3.063c-.838 6.615-1.156 13.284-1.563 19.937h-1c-1.191-19.34-1.191-19.34-1-29"/><path fill="#ebf1f9" d="M219 69h2c.836 2.928 1.162 5.582 1.188 8.625l.042 2.352C222 82 222 82 220 84h-2c-.103-5.126-.036-9.95 1-15"/><path fill="#c29b33" d="m199 223-6 1v2c-5.225 1.467-9.581 2.226-15 2l1-2c2.61-.834 5.156-1.544 7.813-2.187l2.197-.577c3.721-.922 6.333-1.368 9.99-.236"/><path fill="#cb9a1d" d="m185 189 3 1c-3.77 2.807-7.569 5.434-11.625 7.813l-2.164 1.269c-2.55 1.059-4.476 1.086-7.211.918 1.23-2.46 2.12-2.73 4.563-3.91l2.164-1.06 2.273-1.093c4.82-2.022 4.82-2.022 9-4.937"/><path fill="#ecf0e9" d="M33 169c3.246 5.41 3.324 10.968 2 17-2.706-2.706-3.002-4.024-3.25-7.937.116-3.104.495-6.043 1.25-9.063"/><path fill="#e3eadd" d="m30 155 2 1c1.204 3.874.868 6.88.063 10.813l-.59 2.957L31 172h-2a1180 1180 0 0 1-.062-6.25l-.036-3.516c.08-2.644.312-4.732 1.098-7.234"/><path fill="#ebe9db" d="m220 24 3 1c.082 1.582.14 3.166.188 4.75l.105 2.672c-.347 3.057-1.357 4.247-3.293 6.578-.714 2.65-.714 2.65-1 5h-1c-.169-3.46.026-6.089 1-9.437 1.036-3.69 1.156-6.752 1-10.563"/><path fill="#e9e6dd" d="M174 212c2.13 1.065 3.366 2.292 5 4l-2.25 1.313A73 73 0 0 0 170 222c0-5.273 0-5.273 1-8z"/><path fill="#bb8d1a" d="m173 211 3 1-2.16 1.54c-5.495 3.948-10.783 7.965-15.84 12.46a56.5 56.5 0 0 1 4-7h2v-2c1.863-1.543 1.863-1.543 4.313-3.187l2.425-1.668z"/><path fill="#edf1f9" d="M188 155h1c.097 6.115-.23 11.933-1 18-2-2-2-2-2.266-3.918.035-5.078.628-9.27 2.266-14.082"/><path fill="#e1f0f1" d="M186 9h2l1 14h-2v7h-1z"/><path fill="#659d6b" d="M95 233c2.121.645 2.121.645 4.438 1.813 2.852 1.414 5.44 2.526 8.562 3.187l-1 3c-5.196-1.599-10.066-3.741-15-6z"/><path fill="#eeeff3" d="M201.25 207.313 203 208a393 393 0 0 1-5 3l-2 1.25c-2.635.988-4.334.49-7-.25l2-4h4v2l1.75-1.562C199 207 199 207 201.25 207.313"/><path fill="#2d7836" d="M110 224c2.628 1.865 3.864 3.304 4.488 6.492.238 2.504.416 4.995.512 7.508-3.242-.35-4.615-.562-6.812-3.062L107 233l6 3c-.508-4.318-1.197-8.033-3-12"/><path fill="#83b278" d="M39 220q2.844-.04 5.688-.062l3.199-.036c2.837.09 5.357.449 8.113 1.098v2l4 1c-7.094-.585-14.016-1.632-21-3z"/><path fill="#d4a214" d="M193 207c-5.779 3.257-10.378 4.693-17 5l-1-2a982 982 0 0 1 7.313-2.062l2.091-.604c5.256-1.447 5.256-1.447 8.596-.334"/><path fill="#cc9f28" d="M210 204v3l-14 7-2-2c3.841-2.478 7.83-4.32 12.012-6.133A84 84 0 0 0 210 204"/><path fill="#f8f2f0" d="M68 155c2.491 3.737 2.207 5.745 2.125 10.188l-.055 3.855L70 172l-2 1 .035-2.266.028-2.984.035-2.953c.007-2.72.007-2.72-.664-4.969C67 158 67 158 68 155"/><path fill="#d6ac35" d="M188 40h1l.076 1.896q.176 4.24.362 8.479l.119 2.984.127 2.852.11 2.634c.08 2.203.08 2.203 1.206 4.155a76 76 0 0 1-1 5c-2.298-3.446-2.236-4.71-2.195-8.762l.02-3.388.05-3.538.027-3.572q.036-4.37.098-8.74"/><path fill="#c1a14b" d="M142 228h1l1 7 4 1-9 4 .938-2.062c1.196-3.308 1.652-6.453 2.062-9.938"/><path fill="#eef1f9" d="M218 133h1q.333 4.312.625 8.625l.195 2.45c.313 4.803.1 8.396-1.82 12.925h-1c-.167-8.042.353-15.986 1-24"/><path fill="#eee1bc" d="m219 128 3 6-4-1v14h-1v-17h2z"/><path fill="#e0e0de" d="M71 42h1c.25 2.081.474 4.165.688 6.25l.386 3.516c-.081 3.559-.65 4.716-3.074 7.234a1180 1180 0 0 1-.062-6.25l-.036-3.516c.08-2.644.312-4.732 1.098-7.234"/><path fill="#f7fafc" d="M69 36c2.094 3.402 2.18 6.053 2 10h-1l-1 7h-1a1180 1180 0 0 1-.062-6.25l-.036-3.516c.08-2.644.312-4.732 1.098-7.234"/><path fill="#479133" d="m64 35 4 1-1 18h-1l-.184-3.395-.254-4.417-.119-2.237C65.256 40.77 65.013 38.038 64 35"/><path fill="#f2c645" d="m221 25-1 12h-1V27h-6c3-2 3-2 8-2"/><path fill="#3983b4" d="m139 49 1 3h-2l-.812 2.813c-1.1 2.95-1.812 4.243-4.188 6.187.509-4.374 1.43-7.401 4-11z"/><path fill="#1f76ae" d="M139 226h2c-.576 4.755-2.55 7.97-5 12l-2-1c0-3 0-3 2-5l2-1c.656-2.527.656-2.527 1-5"/><path fill="#a0cf85" d="M27 216v2l2 1-17-1v-1q2.625-.253 5.25-.5l2.953-.281c2.26-.177 4.53-.219 6.797-.219"/><path fill="#ca3631" d="m106 211 7 6-1 4-7-7z"/><path fill="#3faad5" d="m172 16 3 1c-2.168 2.276-4.327 4.33-7 6l-3-1c2.257-2.335 4.28-4.187 7-6"/><path fill="#d7e2d6" d="M72 211q3.012.43 6 1c-2 2-2 2-5.04 2.195l-3.585-.07-3.602-.055L63 214v-1l6.152-.684c1.86-.135 1.86-.135 2.848-1.316"/><path fill="#eedfbb" d="M217 200v2c-2.836 1.418-4.99.863-8.125.563l-3.32-.31L203 202v-1c4.763-.953 9.167-1.083 14-1"/><path fill="#d9584d" d="m69 10 5 1 1 3-4-1v5l-2-1z"/><path fill="#89ab8a" d="M111 239c2.667 2.49 4.557 4.634 6 8h-3v-2l-5-2 2-1z"/><path fill="#ece8e2" d="M167.188 221.938 169 223a328 328 0 0 1-3.875 1.563l-2.18.878C161 226 161 226 159 225c2.514-2.753 4.37-4.698 8.188-3.062"/><path fill="#eceff9" d="M203 202c2.875-.125 2.875-.125 6 0l2 2c-3 2-3 2-7 2z"/><path fill="#cfe0c6" d="m33 24 3 1v8h-3z"/><path fill="#c7ae63" d="M144 240h2l1 3-5 2v2h-2c1.074-2.915 1.778-4.778 4-7"/><path fill="#3c8245" d="m102 212 7 7-1 3a91 91 0 0 1-4-4v-2l-3-1z"/><path fill="#bb8b1c" d="m154 227 2 1-7 7-3-1z"/><path fill="#cedec2" d="M37 200c10.558-.185 10.558-.185 15 1v1c-1.747.25-3.498.474-5.25.688-1.462.19-1.462.19-2.953.386-3.28-.087-4.43-.882-6.797-3.074"/><path fill="#7fb766" d="M27 217h7v2h5v1c-4.548.178-7.88-.002-12-2z"/><path fill="#378344" d="M79 228c4.087-.24 7.177.577 11 2v2l-8-1v-2z"/><path fill="#3e8346" d="M76 215c3.914 1.27 5.79 2.512 8 6-3.775-1.09-6.47-1.908-9-5z"/><path fill="#bf9422" d="M185 213v2c-2.812 1.563-2.812 1.563-6 3l-3-1c6-4 6-4 9-4"/><path fill="#faf6f8" d="M33 169c1.858 3.135 2.201 5.375 2 9l-2 1c-.95-3.695-.95-6.305 0-10"/><path fill="#cb5248" d="M100 31c3.255.349 4.019 1.021 6.25 3.563L108 37h-3l-1-3c-2-1.209-2-1.209-4-2z"/><path fill="#dfe3de" d="M86 220c2.5.313 2.5.313 5 1l1 2c-1.812.688-1.812.688-4 1-1.75-1.437-1.75-1.437-3-3z"/><path fill="#efbb26" d="M219 191h1v11h-3z"/><path fill="#f6f3f6" d="M38 127h1c.125 3.375.125 3.375 0 7l-2 2-1-7h2z"/><path fill="#e2b337" d="m195 32 2 1-7 5-1-3a101 101 0 0 1 6-3"/></svg>